#!OML:ASF H:\LiuWeirdWalks\Patient Classification 1\Patient 1\Session 1\male.ASF
:FULLY-SPECIFIED
:DEGREES
604
root 2.72253 17.7514 36.4784 1.90015 4.02742 5.31395
lowerback -0.247269 0.112062 -7.90636
upperback 0.207938 0.180213 0.49023
thorax 0.328789 0.0706953 4.9477
lowerneck -21.6197 -0.156283 2.40594
upperneck 11.788 -0.165984 -4.41835
head 7.11824 -0.396146 -1.8661
rclavicle 9.20621e-015 -7.95139e-016
rhumerus -24.3277 -12.1159 -72.6428
rradius 35.916
rwrist -13.8777
rhand -20.6711 -0.833144
rfingers 7.12502
rthumb 5.69187 -30.7367
lclavicle 9.20621e-015 -7.95139e-016
lhumerus -37.9998 12.5072 79.0115
lradius 14.715
lwrist -18.4922
lhand 0.403022 -4.23749
lfingers 7.12502
lthumb 25.9763 24.0072
rfemur -16.2079 -0.649806 14.2339
rtibia 41.8071
rfoot -18.7939 -16.6661
rtoes 0.0811417
lfemur -9.92052 -2.24085 -26.1161
ltibia 29.2008
lfoot -13.008 11.9649
ltoes -9.41714
605
root 2.73215 17.7557 36.5067 1.92776 4.17926 5.27972
lowerback -0.443033 -0.0320454 -8.09822
upperback 0.128043 0.00320633 0.563733
thorax 0.381656 -0.0180237 5.13207
lowerneck -21.5681 -0.0551729 2.47212
upperneck 11.9845 -0.0253948 -4.51774
head 7.18009 -0.335851 -1.8945
rclavicle -1.07841e-014 -1.63003e-014
rhumerus -24.2953 -12.2695 -72.6925
rradius 34.518
rwrist -13.4603
rhand -20.541 -1.16927
rfingers 7.12502
rthumb 5.81753 -31.0694
lclavicle -1.07841e-014 -1.63003e-014
lhumerus -38.0731 12.5873 78.868
lradius 14.9936
lwrist -17.8154
lhand -0.619682 -4.5373
lfingers 7.12502
lthumb 24.9967 23.8474
rfemur -16.0172 -0.87604 14.2231
rtibia 41.663
rfoot -18.8805 -16.556
rtoes 0.0467096
lfemur -9.75829 -2.32338 -26.1055
ltibia 29.0477
lfoot -13.0242 11.8977
ltoes -9.45746
606
root 2.7424 17.7594 36.5333 2.06153 4.29635 5.59032
lowerback -0.713917 -0.217437 -8.70726
upperback 0.0291106 -0.218132 0.581569
thorax 0.466891 -0.13055 5.49263
lowerneck -21.508 0.108588 2.62267
upperneck 12.138 0.1878 -4.69581
head 7.22976 -0.244185 -1.95335
rclavicle -1.51698e-014 -2.10712e-014
rhumerus -24.2492 -12.2846 -72.7597
rradius 33.1488
rwrist -13.0097
rhand -20.3118 -1.47813
rfingers 7.12502
rthumb 6.03877 -31.3721
lclavicle -1.51698e-014 -2.10712e-014
lhumerus -38.171 12.9495 78.6191
lradius 15.2978
lwrist -17.2079
lhand -1.73011 -4.84986
lfingers 7.12502
lthumb 23.9322 23.6787
rfemur -15.9778 -1.13649 13.8182
rtibia 41.6001
rfoot -18.9752 -16.3887
rtoes -0.0119191
lfemur -9.66282 -2.39838 -26.4755
ltibia 28.8324
lfoot -12.9918 11.8402
ltoes -9.52258
607
root 2.75222 17.7588 36.5585 2.22841 4.38593 5.97857
lowerback -0.983905 -0.194189 -9.06432
upperback -0.0504395 -0.159213 0.417529
thorax 0.527231 -0.101631 5.5227
lowerneck -21.655 0.016068 2.49634
upperneck 12.383 0.0927923 -4.62134
head 7.33085 -0.291419 -1.92355
rclavicle -4.19933e-015 -5.1684e-015
rhumerus -24.4227 -12.9311 -72.6481
rradius 31.8659
rwrist -12.4086
rhand -19.966 -1.70286
rfingers 7.12502
rthumb 6.37259 -31.587
lclavicle -4.19933e-015 -5.1684e-015
lhumerus -38.0112 12.8164 78.5042
lradius 15.5784
lwrist -16.5845
lhand -2.9005 -5.15704
lfingers 7.12502
lthumb 22.8095 23.5143
rfemur -16.0248 -1.38116 13.3292
rtibia 41.6312
rfoot -19.1008 -16.2242
rtoes -0.0761624
lfemur -9.57373 -2.457 -26.9276
ltibia 28.5513
lfoot -12.9137 11.7751
ltoes -9.58461
608
root 2.76098 17.762 36.5837 2.37623 4.44536 6.27003
lowerback -1.23548 -0.161429 -9.3379
upperback -0.12472 -0.0885036 0.284301
thorax 0.58017 -0.0665389 5.53828
lowerneck -21.8211 -0.0673545 2.39556
upperneck 12.6255 0.00551709 -4.56555
head 7.43498 -0.335664 -1.90346
rclavicle -1.30763e-014 7.55382e-015
rhumerus -24.6276 -13.6103 -72.506
rradius 30.5907
rwrist -11.5806
rhand -19.4686 -1.768
rfingers 7.12502
rthumb 6.8528 -31.6371
lclavicle -1.30763e-014 7.55382e-015
lhumerus -37.8566 12.7632 78.3605
lradius 15.9107
lwrist -15.9256
lhand -4.10107 -5.42999
lfingers 7.12502
lthumb 21.6569 23.3788
rfemur -16.0523 -1.55809 12.9592
rtibia 41.6464
rfoot -19.2221 -16.1009
rtoes -0.124389
lfemur -9.47595 -2.49914 -27.2671
ltibia 28.281
lfoot -12.8543 11.7202
ltoes -9.66079
609
root 2.76918 17.764 36.6078 2.57555 4.49149 6.69517
lowerback -1.51434 -0.130729 -9.74419
upperback -0.205759 -0.0137792 0.112432
thorax 0.640356 -0.0298125 5.5884
lowerneck -22.0202 -0.147587 2.30733
upperneck 12.8809 -0.0810058 -4.51057
head 7.54926 -0.37932 -1.88622
rclavicle -8.67198e-015 2.14687e-014
rhumerus -24.8657 -14.3693 -72.3213
rradius 29.3191
rwrist -10.4727
rhand -18.814 -1.6196
rfingers 7.12502
rthumb 7.4847 -31.4672
lclavicle -8.67198e-015 2.14687e-014
lhumerus -37.6977 12.7279 78.2226
lradius 16.3029
lwrist -15.148
lhand -5.33017 -5.65383
lfingers 7.12502
lthumb 20.4762 23.2864
rfemur -16.1273 -1.74496 12.4409
rtibia 41.6391
rfoot -19.3158 -15.9645
rtoes -0.172717
lfemur -9.45363 -2.53769 -27.749
ltibia 28.061
lfoot -12.8178 11.6674
ltoes -9.74761
610
root 2.77418 17.768 36.633 2.61326 4.53388 6.58462
lowerback -1.66238 0.08712 -9.37209
upperback -0.226435 0.28634 -0.0447445
thorax 0.65408 0.121247 5.22041
lowerneck -22.4054 -0.434609 1.99279
upperneck 13.2412 -0.417655 -4.23263
head 7.72113 -0.533073 -1.79255
rclavicle -6.20581e-015 1.27222e-014
rhumerus -25.2773 -15.6961 -71.9699
rradius 28.0958
rwrist -9.0718
rhand -18.032 -1.27644
rfingers 7.12502
rthumb 8.2394 -31.0958
lclavicle -6.20581e-015 1.27222e-014
lhumerus -37.3412 12.2029 78.2423
lradius 16.72
lwrist -14.2183
lhand -6.56991 -5.83799
lfingers 7.12502
lthumb 19.2844 23.2258
rfemur -15.9883 -1.77102 12.5512
rtibia 41.4909
rfoot -19.3716 -15.97
rtoes -0.186524
lfemur -9.34829 -2.57288 -27.6333
ltibia 27.9499
lfoot -12.8687 11.6442
ltoes -9.83388
611
root 2.77844 17.7716 36.6575 2.64015 4.57708 6.4857
lowerback -1.78931 0.262493 -9.08669
upperback -0.244676 0.528189 -0.167006
thorax 0.671638 0.242652 4.93766
lowerneck -22.7593 -0.668766 1.73409
upperneck 13.5793 -0.690972 -4.00187
head 7.88488 -0.657333 -1.71602
rclavicle 1.21445e-014 1.94809e-014
rhumerus -25.6696 -16.9519 -71.6062
rradius 26.8764
rwrist -7.4804
rhand -17.1908 -0.7998
rfingers 7.12502
rthumb 9.0512 -30.5856
lclavicle 1.21445e-014 1.94809e-014
lhumerus -37.0466 11.7644 78.2696
lradius 17.2239
lwrist -13.1029
lhand -7.79044 -5.98454
lfingers 7.12502
lthumb 18.1105 23.1923
rfemur -15.8065 -1.79398 12.6516
rtibia 41.2651
rfoot -19.3823 -15.9792
rtoes -0.186215
lfemur -9.27982 -2.62324 -27.5299
ltibia 27.9367
lfoot -12.971 11.6458
ltoes -9.91256
612
root 2.77989 17.777 36.6827 2.51577 4.63763 5.91434
lowerback -1.7975 0.436866 -8.37522
upperback -0.230564 0.747775 -0.139493
thorax 0.66611 0.353772 4.57115
lowerneck -23.1071 -0.88026 1.49796
upperneck 13.904 -0.937217 -3.78866
head 8.0458 -0.768493 -1.64603
rclavicle 4.18442e-014 -7.15625e-015
rhumerus -26.0728 -18.1707 -71.2337
rradius 25.7222
rwrist -5.86028
rhand -16.373 -0.32283
rfingers 7.12502
rthumb 9.84026 -30.0729
lclavicle 4.18442e-014 -7.15625e-015
lhumerus -36.7823 11.3263 78.3266
lradius 17.8077
lwrist -11.8042
lhand -8.93479 -6.09246
lfingers 7.12502
lthumb 17.0092 23.1828
rfemur -15.4292 -1.70302 13.3046
rtibia 40.9246
rfoot -19.3597 -16.1089
rtoes -0.179189
lfemur -9.13754 -2.68474 -26.9016
ltibia 28.0348
lfoot -13.1467 11.6721
ltoes -9.96649
613
root 2.78103 17.7817 36.7074 2.39594 4.71818 5.37861
lowerback -1.78927 0.701303 -7.53948
upperback -0.19006 1.08519 -0.201374
thorax 0.672562 0.523015 4.04419
lowerneck -23.572 -1.22105 1.12764
upperneck 14.2481 -1.33821 -3.45415
head 8.23188 -0.9472 -1.53634
rclavicle -1.51138e-014 2.90226e-014
rhumerus -26.5745 -19.6879 -70.7695
rradius 24.6858
rwrist -4.22564
rhand -15.6042 -0.0279461
rfingers 7.12502
rthumb 10.582 -29.7415
lclavicle -1.51138e-014 2.90226e-014
lhumerus -36.383 10.5607 78.4989
lradius 18.43
lwrist -10.3599
lhand -9.9233 -6.14282
lfingers 7.12502
lthumb 16.0575 23.2118
rfemur -15.0485 -1.64692 13.9167
rtibia 40.5697
rfoot -19.3259 -16.2254
rtoes -0.158922
lfemur -9.01192 -2.76199 -26.3128
ltibia 28.1573
lfoot -13.3243 11.6975
ltoes -9.99564
